<?xml version='1.0' encoding='utf-8'?>
<svg xmlns="http://www.w3.org/2000/svg" width="1323.4mm" height="1323.4mm" version="1.1" viewBox="0 0 1323.4 1323.4"><g transform="translate(144.41 1628.4)"><g transform="matrix(3.1584 0 0 3.107 -5692.9 598.12)"><path d="m1756.7-716.61h419.02v425.96h-419.02z" fill="#fffae8" stop-color="#000000" stroke-linecap="square" stroke-width="2.7772" style="paint-order:markers stroke fill"/><g transform="translate(468.05 -4.6357)" stroke-width=".31922"><path d="m1470.1-618.95c-0.6935-0.19981-2.2203-1.3723-3.7484-2.8786-2.2829-2.2502-2.8433-3.0872-4.8906-7.304-2.3335-4.8064-5.4129-13.09-8.7213-23.46-1.2234-3.8347-2.7492-7.5673-4.759-11.642-3.3172-6.7248-4.051-9.0414-4.051-12.788 0-4.0831 1.4561-6.1838 4.9499-7.1409 4.8218-1.321 9.1368-1.2027 20.17 0.55281 6.7583 1.0753 8.3902 1.8944 9.615 4.8258 0.7957 1.9042 0.679 3.988-0.67 11.965-2.2371 13.229-2.5446 21.137-1.1003 28.297 1.2364 6.1291 2.0661 12.418 1.815 13.757-0.3951 2.1061-2.079 4.2666-4.1168 5.2821-1.9923 0.99282-2.6331 1.0688-4.4927 0.53297z" fill="#996e95"/><path d="m1489.9-618.01c-0.194-0.0687-0.7864-0.22052-1.3165-0.33731-1.7974-0.39606-3.458-2.295-5.1044-5.8372-1.7521-3.7696-2.5661-6.7439-2.5612-9.358 0-0.97014 0.4165-4.9389 0.9215-8.8194 0.7731-5.9401 0.9585-9.1192 1.1733-20.108 0.2581-13.204 0.375-14.322 1.7263-16.505 1.7721-2.8633 3.9356-4.0394 9.5707-5.203 5.8214-1.202 12.29-0.53536 18.901 1.948 3.1139 1.1697 4.8898 2.4021 5.5911 3.88 1.1253 2.3715 1.0212 2.6685-4.4565 12.705-3.6048 6.605-5.8427 13.574-7.7032 23.989-0.8612 4.8206-3.8403 14.712-5.1709 17.169-2.0047 3.7014-5.3722 6.0287-9.2782 6.4122-1.0671 0.10479-2.099 0.13429-2.293 0.0656z" fill="#996e95"/><path d="m1510.8-613.66c-2.5965-0.72984-4.059-3.0428-3.3928-5.3656 0.1709-0.596 0.2112-2.8353 0.089-4.9762-0.405-7.1224 0.5804-10.579 5.2619-18.459 2.7271-4.5904 3.2019-5.6801 5.303-12.171 1.2693-3.921 2.7234-8.7156 3.2314-10.655 0.5487-2.0943 1.5544-4.6923 2.4773-6.3992 0.8546-1.5804 2.0475-4.3924 2.651-6.2489 0.9812-3.0183 1.2821-3.5415 2.8436-4.9454 2.1926-1.9714 4.0792-2.6228 8.974-3.0984 4.1154-0.39993 12.853-0.17057 16.751 0.43974 8.511 1.3324 11.038 7.3091 5.5888 13.22-0.8393 0.91049-4.0594 3.8965-7.1558 6.6356-9.0943 8.0449-10.39 9.2761-12.964 12.319-3.4152 4.0371-4.5838 6.1187-6.2505 11.134-1.6309 4.9082-5.7765 13.752-8.24 17.578-0.8985 1.3955-2.1214 3.5037-2.7176 4.6847-1.3462 2.6668-3.2201 4.7747-5.0962 5.7327-1.6726 0.85412-5.34 1.1404-7.3546 0.57416z" fill="#996e95"/><path d="m1451.7-613.01c-1.7049-0.63946-6.264-4.4006-8.782-7.2449-1.1472-1.2959-3.5289-3.9913-5.2925-5.9896-1.7637-1.9984-4.6348-4.9924-6.3803-6.6536-1.7456-1.6611-3.8779-4.0794-4.7386-5.374-1.4035-2.1112-6.1324-11.266-10.069-19.492-0.8026-1.6774-3.0596-5.3286-5.0155-8.1139-3.7739-5.3742-5.2613-8.1909-6.1842-11.711-0.5326-2.0311-0.5296-2.2567 0.045-3.4681 0.3894-0.82019 1.0781-1.5154 1.8768-1.8944 1.1856-0.5626 1.8383-0.56304 10.821-7e-3 10.413 0.64409 12.838 1.1026 15.804 2.988 3.1146 1.9799 5.6804 6.4904 8.7484 15.379 1.0565 3.0609 3.2912 8.266 5.3009 12.347 2.7406 5.5655 3.7722 8.1043 4.8848 12.022 1.5412 5.426 2.4547 7.6147 4.6151 11.057 2.0229 3.2229 3.6078 7.5252 3.6471 9.8998 0.04 2.4361-0.9962 4.5675-2.7475 5.6499-1.5521 0.95924-4.7916 1.26-6.5337 0.60657z" fill="#996e95"/><path d="m1525.2-606.89c-3.5802-2.183-2.9447-7.2133 1.9629-15.536 1.2012-2.0373 3.3871-6.0854 4.8574-8.9958 1.8687-3.6992 3.7076-6.6718 6.1104-9.8778 1.8905-2.5224 4.084-5.6974 4.8747-7.0556 2.7569-4.7361 4.5479-6.8839 13.163-15.785 7.0557-7.2898 9.2201-9.7683 11.611-13.296 3.2772-4.8352 4.7222-6.1162 7.6342-6.7679 2.0815-0.46583 1.1922-0.6009 15.25 2.3162 6.6376 1.3774 8.0853 2.3594 7.7011 5.2239-0.3685 2.747-3.5239 5.5981-11.441 10.337-11.506 6.8873-16.54 11.599-27.14 25.401-1.7791 2.3167-6.3035 7.3875-10.054 11.269-5.2148 5.3961-7.7739 8.3804-10.876 12.683-2.2313 3.0948-4.8496 6.4843-5.8184 7.5322-2.9102 3.1478-5.483 3.9858-7.8346 2.5519z" fill="#996e95"/><path d="m1434-603.01c-4.5643-0.3831-6.4312-1.5104-12.505-7.5511-2.7164-2.7015-5.7326-5.5128-6.7028-6.2474-0.9701-0.73455-4.5122-2.768-7.8713-4.5188-9.9337-5.1776-16.837-10.562-20.407-15.918-1.0947-1.6423-5.6494-9.8961-10.7-19.39-3.7017-6.9583-4.8472-8.6226-9.0196-13.105-5.2998-5.6936-6.1342-7.3964-4.8123-9.8205 1.5051-2.7601 4.2868-3.2824 16.602-3.1174 9.3087 0.12475 9.4217 0.13529 12.043 1.1228 7.312 2.755 13.794 8.4868 17.196 15.206 0.393 0.77611 1.3854 3.3161 2.2055 5.6444 3.1614 8.9761 10.561 21.874 16.118 28.091 1.3227 1.4802 4.2941 4.4964 6.603 6.7028 7.1894 6.87 9.7657 10.996 9.9941 16.006 0.1116 2.4481 0.021 3.0049-0.6817 4.2002-1.5656 2.662-2.9484 3.1243-8.0608 2.6952z" fill="#996e95"/><path d="m1537.9-596.31c-0.4098-0.17188-1.0845-0.74402-1.4993-1.2714-1.4528-1.8469-0.741-6.7069 1.5565-10.627 1.2272-2.0942 5.9854-8.0259 9.8546-12.285 3.8432-4.2308 7.1803-8.2523 10.935-13.178 1.63-2.1382 4.6172-5.3563 7.2044-7.7611 2.4309-2.2595 8.4733-8.0838 13.428-12.943 4.9544-4.8591 10.04-9.7156 11.301-10.792 3.3059-2.8221 13.549-10.451 16.172-12.046 5.2652-3.1996 12.052-5.0121 20.802-5.5552 3.0445-0.18899 7.758-0.50187 10.474-0.69529 2.7163-0.19342 7.4788-0.33566 10.583-0.3161 3.6945 0.0233 6.9241-0.16624 9.3486-0.54861 4.2773-0.67457 10.193-0.7478 16.809-0.20805 6.9544 0.5674 9.297 1.4771 9.297 3.6104 0 3.459-5.9848 8.5954-11.994 10.294-1.0671 0.30167-3.9246 0.87835-6.35 1.2815-5.4891 0.91244-7.7464 1.5262-11.994 3.2611-1.8433 0.75282-5.4946 2.1654-8.1139 3.139-6.6997 2.4902-10.78 4.9513-17.639 10.638-3.3122 2.7462-14.69 10.551-21.872 15.003-2.0373 1.2629-5.768 3.2978-8.2903 4.522-2.5224 1.2242-7.2849 3.6564-10.583 5.4049-3.2985 1.7485-8.8548 4.3863-12.347 5.8617-10.686 4.5147-12.141 5.453-19.606 12.65-6.7754 6.5319-12.191 11.399-13.349 11.998-1.2975 0.67096-3.2365 0.93542-4.1253 0.56264z" fill="#996e95"/><path d="m1548.9-585.42c-2.0529-0.5084-3.6196-1.708-4.4486-3.4065-1.2682-2.5983-0.2673-5.0274 3.8454-9.332 3.501-3.6644 6.7593-6.3435 13.299-10.934 5.7524-4.0383 6.2388-4.3123 16.404-9.2372 3.7836-1.8331 8.2773-4.229 9.9861-5.3244s5.5201-3.2346 8.4695-4.7538c2.9494-1.5193 6.2344-3.277 7.3-3.906 1.0656-0.62901 4.7594-2.6346 8.2083-4.4569 8.9359-4.7213 13.47-7.6126 19.306-12.311 6.6782-5.3765 10.874-8.1419 16.268-10.722 6.107-2.9213 9.9112-4.113 17.168-5.3781 8.2359-1.4358 13.588-1.5552 16.02-0.35736 1.2348 0.60826 1.8347 1.1898 2.365 2.2931 0.6534 1.3592 0.7159 2.2586 0.7768 11.179 0.074 10.818-0.026 11.556-2.1756 16.088-1.6229 3.4213-4.2089 6.0173-7.9379 7.9683-3.5223 1.8429-4.67 2.0527-11.858 2.1682-6.0932 0.0979-6.8528 0.18948-13.34 1.6086-10.484 2.2932-18.686 4.7489-22.225 6.6544-1.6492 0.88787-4.1099 2.205-5.4681 2.927-1.3582 0.72197-4.7602 2.1436-7.5601 3.1592-13.191 4.7847-21.718 8.5921-28.395 12.679-3.9304 2.4056-8.1925 4.3912-15.55 7.2443-3.8806 1.5047-8.8932 3.5058-11.139 4.4469-4.3673 1.8298-6.9214 2.2968-9.3173 1.7034z" fill="#996e95"/><path d="m1410.9-582.8c-5.3323-1.1425-11.389-4.1539-17.292-8.5978-5.0773-3.8224-7.3539-6.0904-11.633-11.59-4.3889-5.6403-11.796-13.176-16.06-16.338-2.4842-1.8425-4.9937-3.2806-15.341-8.7912-6.2421-3.3243-14.114-8.6723-17.544-11.919-5.5262-5.231-9.0011-11.394-13.743-24.376-2.2603-6.188-4.8541-11.596-6.633-13.831-0.7811-0.98106-1.4203-2.1353-1.4203-2.5649 0-0.84633 0.9995-1.9489 1.7667-1.9489 0.2619 0 0.9638-0.15677 1.5597-0.34839 0.5958-0.19161 3.4646-0.92365 6.375-1.6267 9.0457-2.1852 14.689-1.9824 21.867 0.7861 6.4313 2.4805 10.675 5.2557 14.723 9.6277 3.8749 4.1852 5.1996 6.3782 14.722 24.37 5.8198 10.996 10.194 16.328 19.978 24.355 9.2442 7.5836 9.2366 7.5781 14.873 10.64 2.7735 1.5066 5.8732 3.3537 6.8884 4.1047 7.2313 5.3492 13.664 15.339 13.664 21.22 0 2.0815-1.3808 4.9185-2.8026 5.7584-2.8681 1.6942-8.8817 2.1554-13.949 1.0698z" fill="#996e95"/><path d="m1411.3-566.25c-0.582-0.0541-2.9633-0.34548-5.2916-0.64754-10.186-1.3215-14.761-2.9251-21.994-7.7096-3.9426-2.608-6.3525-3.6844-10.285-4.5938-5.3582-1.2391-9.0624-3.4823-16.751-10.144-3.6522-3.1645-5.1079-3.6722-12.461-4.3459-3.2393-0.29679-6.9215-0.77567-8.1826-1.0642-12.202-2.7916-19.925-9.2884-22.411-18.853-1.1624-4.4727-1.9528-10.521-2.5357-19.403-0.8272-12.605-0.8179-16.832 0.04-18.098 0.7714-1.1381 2.2836-2.0139 3.4579-2.0027 3.465 0.0331 8.9452 5.673 15.926 16.391 2.1954 3.3705 3.0747 4.3472 6.7572 7.506 5.637 4.8354 7.5047 6.0036 14.897 9.3182 6.8271 3.0612 14.058 7.1779 17.149 9.7636 1.0785 0.9021 2.9329 2.8308 4.1209 4.286 4.5071 5.5209 5.7818 6.9009 11.195 12.12 3.4489 3.325 6.5718 5.9929 8.2109 7.0145 3.3715 2.1014 10.269 4.8619 15.633 6.2569 2.2981 0.59762 4.7672 1.3869 5.4867 1.754 3.1624 1.6134 5.0625 5.1878 4.2875 8.0659-0.4114 1.5279-1.4709 3.0502-2.5097 3.6062-0.905 0.48437-3.436 0.90045-4.7402 0.77928z" fill="#996e95"/><path d="m1558.4-564.25c-0.5545-0.15567-1.2688-0.51118-1.5875-0.79003s-1.1025-0.77197-1.7416-1.0958c-2.281-1.1558-3.207-4.305-2.0594-7.0041 0.7459-1.7544 3.1867-4.2921 5.7939-6.0241 4.4465-2.9538 13.589-7.7225 18.035-9.4065 2.4421-0.9251 8.3295-3.5413 13.083-5.8138s11.58-5.4031 15.169-6.9569c3.5895-1.5538 7.7541-3.356 9.2546-4.0048 1.5004-0.64884 4.5961-1.8392 6.8791-2.6453 2.2831-0.80607 7.3261-2.9389 11.207-4.7396 8.7897-4.0788 8.7775-4.0736 15.054-6.3548 9.2928-3.3776 15.464-4.5004 25.011-4.551 5.1102-0.0271 5.1496-0.0212 6.8791 1.0311 1.3656 0.83081 1.967 1.5134 2.7979 3.175 1.0089 2.0178 1.064 2.3607 1.1792 7.34 0.1892 8.1683-0.8086 12.223-3.8184 15.516-3.3957 3.7154-6.4019 4.6561-16.587 5.1901-13.352 0.70009-16.312 1.2535-27.294 5.1035-3.0792 1.0794-7.4448 2.4293-9.7014 2.9998-3.7123 0.93858-10.096 3.0178-23.153 7.541-5.8851 2.0388-8.8207 2.7731-16.404 4.1035-6.7982 1.1926-11.317 2.4657-16.933 4.7709-5.7118 2.3442-9.1411 3.1551-11.062 2.6157z" fill="#996e95"/><path d="m1395-546.59c-0.7766-0.15447-4.031-1.0856-7.2319-2.0691-9.6289-2.9588-13.782-3.7439-19.578-3.701-3.4823 0.0258-6.0578 0.25768-8.7326 0.78617-7.2903 1.4405-23.638 2.1-29.191 1.1776-6.6074-1.0975-12.466-3.9548-14.628-7.1345-2.1464-3.1566-5.8604-18.344-6.3383-25.919-0.2355-3.7333 0.416-10.79 1.2545-13.589 0.5752-1.9198 2.3864-3.768 3.9869-4.0682 1.4686-0.2755 4.0406 0.5097 6.0331 1.8418 0.7708 0.51535 3.496 2.4255 6.0559 4.2449 7.0313 4.997 10.089 6.2286 18.232 7.3441 4.9346 0.67595 8.9317 1.6475 11.103 2.6988 0.859 0.41584 3.1363 1.9278 5.0607 3.36 4.8367 3.5996 9.5727 6.1497 14.628 7.8766 2.8529 0.97451 5.6894 2.2835 8.4667 3.907 5.8076 3.3951 8.541 4.4467 14.581 5.6099 9.7123 1.8704 12.986 3.1646 16 6.3247 1.6717 1.7526 1.9936 2.2965 1.9936 3.3685 0 0.70314-0.23 1.7232-0.5112 2.2669-1.1288 2.183-4.7533 4.5162-8.5528 5.5058-2.1823 0.56843-10.091 0.67365-12.633 0.16808z" fill="#996e95"/><path d="m1559.1-545.72c-2.7766-1.6437-3.2507-4.234-1.2682-6.9297 1.1285-1.5345 5.9678-5.5752 9.1018-7.5997 2.6234-1.6947 10.089-4.8244 13.21-5.538 1.2302-0.28125 4.4124-0.68193 7.0716-0.8904 7.2867-0.57124 8.9513-0.95417 15.803-3.6353 4.876-1.9081 7.9114-2.5922 13.758-3.1007 7.4514-0.64801 14.949-2.5094 28.961-7.1902 12.132-4.0529 14.578-4.5363 23.074-4.5599 7.2026-0.0201 9.6692 0.37556 11.753 1.8851 2.7122 1.9647 3.0245 4.4984 1.6629 13.49-0.6585 4.3484-1.9218 6.9408-4.5549 9.3474-2.3225 2.1226-4.873 3.1324-11.86 4.6951-8.0985 1.8115-10.972 2.6901-14.993 4.5842-5.2794 2.4869-5.8662 2.6785-12.524 4.0888-8.5307 1.8071-9.9894 1.9406-16.114 1.4747-4.3476-0.33077-6.3038-0.31329-10.407 0.093-7.2416 0.71706-11.554 0.60059-17.929-0.48427-10.857-1.8474-19.288-2.12-24.41-0.78931-3.3465 0.86948-8.4243 1.987-8.7511 1.9259-0.097-0.0181-0.8102-0.40819-1.5849-0.8668z" fill="#996e95"/><path d="m1389.7-519.61c-1.0158-0.27358-2.6827-0.92171-3.7041-1.4403-1.0215-0.5186-3.6035-1.6964-5.7378-2.6174-2.1343-0.92096-6.2618-2.7398-9.1722-4.0419-7.8501-3.5121-14.968-5.2076-29.071-6.9249-5.858-0.71329-6.894-0.74939-10.583-0.36881-2.2493 0.23204-6.074 0.81658-8.4994 1.299-5.1978 1.0339-9.5509 1.1696-10.256 0.31986-1.1127-1.3407-0.1575-9.3705 1.3558-11.397 1.9233-2.576 2.3101-2.626 13.839-1.7904 8.694 0.63016 25.177 0.63875 36.16 0.0188 9.9623-0.5623 12.864-0.31075 18.344 1.5904 2.1464 0.74456 4.771 1.3572 6.7027 1.5647 4.7363 0.50868 11.461 1.0831 16.228 1.3861 4.4208 0.28103 9.14 1.4439 11.317 2.7888 3.2405 2.0017 2.9006 8.1375-0.6422 11.591-1.9865 1.9363-9.389 6.2969-12.123 7.1413-4.5564 1.4073-10.768 1.7941-14.157 0.88146z" fill="#996e95"/><path d="m1412.3-507.42c-4.8206-1.7145-8.2211-4.5167-8.2266-6.7792-0.01-2.7498 1.4943-3.7806 7.8279-5.3758 3.5433-0.8924 5.1735-1.496 6.6284-2.4542 2.1251-1.3995 3.6197-1.6089 5.2962-0.74191 1.3729 0.70996 2.6695 2.4904 3.1623 4.3423 0.944 3.5476-1.9728 8.067-6.7484 10.456-2.913 1.4573-4.9896 1.6018-7.9398 0.55256z" fill="#996e95"/><path d="m1425-495.3c-2.2225-0.78732-4.3286-2.8379-4.5821-4.4613-0.1928-1.2353-0.089-1.4516 1.3647-2.8446 2.0723-1.9856 7.7618-4.5322 10.604-4.7462 2.3273-0.17523 3.4096 0.34145 4.516 2.1559 2.5456 4.175-2.5949 10.531-8.4504 10.448-1.0847-0.0153-2.638-0.26373-3.4518-0.55202z" fill="#996e95"/><path d="m1460-489.44c-2.3977-0.41271-7.6927-3.09-11.008-5.5658-1.6161-1.207-4.8827-4.3488-7.6434-7.3512-5.7864-6.2932-6.4899-7.1528-9.1997-11.241-10.908-16.454-13.844-37.341-7.8118-55.562 3.381-10.213 9.3561-19.791 16.972-27.207 7.2079-7.019 14.539-11.393 25.333-15.115 7.3998-2.5515 10.479-3.0111 20.097-2.999 7.93 0.01 8.7551 0.0732 13.017 0.99757 13.832 3.0004 24.105 8.7066 33.558 18.639 6.0234 6.3297 8.7788 10.314 11.697 16.915 4.4056 9.9649 6.0666 16.793 6.4242 26.408 0.3003 8.0737 0.151 8.7591-2.4738 11.36-1.2691 1.2574-2.857 2.4013-4.0905 2.9468-1.1088 0.49038-2.2596 1.103-2.5572 1.3613-0.2977 0.25832-4.8274 2.8129-10.066 5.6768-10.049 5.4934-15.304 8.907-31.221 20.28-14.598 10.43-18.482 12.938-25.466 16.441-6.7084 3.3644-11.765 4.6693-15.561 4.0159z" fill="#7d4778"/><path d="m1437.4-487.62c-2.3047-1.0482-3.064-3.4172-1.694-5.285 0.7828-1.0671 4.1881-3.0298 6.2662-3.6116 2.8207-0.78972 5.1292 0.73387 5.1292 3.3853 0 2.5325-1.9846 4.7148-5.1555 5.6691-2.1445 0.64543-2.8322 0.62155-4.5459-0.15784z" fill="#996e95"/><path d="m1312.9-461.41c-1.5434-1.6653-1.7689-3.6865-1.75-15.68 0.015-9.3572 0.1591-12.45 0.9137-19.579 0.7523-7.1082 0.8454-9.0893 0.5797-12.347-0.1741-2.1343-0.2701-6.3412-0.2133-9.3486 0.1384-7.3342 0.2201-7.4953 4.984-9.8252 6.0251-2.9468 11.364-3.7813 22.283-3.4828 12.587 0.344 18.957 2.1988 37.211 10.835 19.29 9.1264 24.203 11.94 36.696 21.013 7.5109 5.4545 13.162 9.0196 18.168 11.461 7.8386 3.8231 12.183 4.75 20.814 4.4408 6.2455-0.22371 7.6402-0.53757 16.228-3.652 5.136-1.8626 17.178-7.7127 23.203-11.272 6.4046-3.7836 14.083-8.9642 27.436-18.512 16.424-11.743 22.725-15.457 31.214-18.399 4.5926-1.5915 7.93-2.2517 14.631-2.8944 9.9601-0.95534 23.133-0.48259 43.584 1.5642 14.861 1.4873 24.97 1.3327 32.516-0.49716 5.1285-1.2436 7.9462-2.3432 16.444-6.4169 4.2356-2.0305 8.9981-4.1993 10.583-4.8197 1.5852-0.62039 3.6592-1.5905 4.6088-2.1559 2.002-1.1918 4.9043-1.5884 6.571-0.89806 1.2064 0.49971 2.1553 1.7052 2.7742 3.5247 0.6905 2.03 1.4383 12.331 1.5237 20.99 0.067 6.7879-0.028 8.622-0.5778 11.223-0.5742 2.7138-0.8011 3.2184-1.785 3.9688-1.459 1.1128-2.1956 1.0838-5.1255-0.20214-5.5799-2.449-13.438-4.5828-20.277-5.5056-6.488-0.87555-20.746-0.68021-28.399 0.38907-7.2791 1.0171-11.052 1.8511-16.757 3.7037-3.4925 1.1342-7.9375 2.4855-9.8778 3.003-14.567 3.8846-26.919 8.2578-37.924 13.427-3.0075 1.4126-7.0556 3.201-8.9959 3.9742-1.9402 0.7732-5.5121 2.3129-7.9375 3.4216-13.509 6.1752-32.97 14.401-40.97 17.316-7.6801 2.7991-22.528 6.477-32.852 8.1378-7.0456 1.1334-13.713 1.3034-16.136 0.41138-0.8731-0.32139-2.6987-0.68353-4.0569-0.80477-9.0538-0.80817-29.404-6.4263-42.862-11.833-19.759-7.9381-27.6-9.6049-45.508-9.6743-6.9989-0.0271-9.23 0.0861-11.729 0.59511-8.867 1.8061-15.363 5.1789-24.142 12.535-4.6511 3.8972-6.9725 6.3038-8.4807 8.7916-1.692 2.7912-3.028 3.9736-4.4896 3.9736-0.9264 0-1.5205-0.25211-2.1211-0.90022z" fill="#be9cb6"/><path d="m1311.1-419.51c-0.113-0.18296-0.3876-1.4241-0.6101-2.758-0.3178-1.9049-0.2846-4.5828 0.1543-12.48 0.8629-15.525 1.3969-16.912 10.319-26.811 8.2707-9.1758 13.394-13.451 20.081-16.758 10.32-5.1042 22.248-6.1867 40.37-3.6636 11.018 1.534 13.86 2.3276 31.332 8.7463 23.32 8.5675 29.058 10.118 40.658 10.985 3.6673 0.27425 7.1125 0.27488 12.171 2e-3 13.574-0.73173 19.029-1.5386 31.044-4.5926 15.188-3.8603 20.108-5.7185 38.1-14.391 4.8507-2.3382 13.502-6.098 19.226-8.3552 5.7238-2.2572 14.693-5.8303 19.932-7.9404 12.04-4.8494 29.667-11.58 34.043-12.998 14.478-4.6933 29.264-6.9064 40.622-6.0804 13.2 0.95999 22.722 3.2892 27.464 6.7178 1.0671 0.77165 2.8534 2.0456 3.9696 2.831 1.1161 0.78539 2.2982 1.8384 2.6269 2.34 0.9318 1.4221 1.4958 5.6822 1.7438 13.172l0.2278 6.88-0.9424 1.1199c-0.7155 0.85031-1.216 1.1133-2.0792 1.0923-0.6253-0.0152-2.0469 0.18732-3.1592 0.45009-1.6825 0.39746-2.9573 0.40191-7.5847 0.0265-13.03-1.0571-19.12-0.86014-26.168 0.84633-6.013 1.456-8.4677 2.4752-27.373 11.366-12.155 5.7162-16.49 7.113-22.965 7.4005-5.2019 0.23096-9.0956-0.20242-18.31-2.038-10.765-2.1444-14.546-2.5734-22.931-2.6014-6.4855-0.0217-7.8871 0.0777-11.252 0.7978-5.4831 1.1735-9.5528 2.6032-15.225 5.3488-6.1431 2.9735-11.874 6.8001-18.433 12.307-7.2018 6.047-12.411 9.7876-19.825 14.235-6.0537 3.6318-7.6188 4.394-12.7 6.1849-11.314 3.9877-20.889 6.5132-27.693 7.3046-5.7757 0.67175-8.0994 0.67267-13.592 5e-3 -8.5653-1.0405-9.4888-1.311-22.666-6.638-3.6438-1.473-8.6444-3.3828-11.112-4.2439s-6.6305-2.3697-9.2499-3.3525c-5.9869-2.2462-17.441-5.8421-21.462-6.7377-6.4672-1.4405-10.142-1.2933-18.018 0.72183-14.124 3.6141-23.718 8.7705-34.019 18.284-1.9092 1.7633-3.5761 3.212-3.7042 3.2193-0.128 7e-3 -0.8121 0.0975-1.5201 0.20036-0.708 0.10287-1.3798 0.0373-1.4929-0.1456z" fill="#eed1e0"/><path d="m1311.7-352.38c-0.4157-0.29115-1.0463-1.3627-1.4014-2.3812-0.5907-1.6943-0.6419-3.1732-0.6019-17.374 0.024-8.5372 0.2316-17.824 0.4612-20.638 0.5625-6.8953 1.6386-14.468 2.4953-17.559 0.3872-1.397 0.7039-2.7742 0.7039-3.0604 0-2.5035 3.5012-7.5107 7.6772-10.979 7.8097-6.487 18.287-11.527 28.659-13.785 4.2291-0.92094 15.449-0.92176 19.756-1e-3 11.702 2.5009 20.754 5.633 32.985 11.413 19.18 9.0638 31.604 12.241 45.508 11.637 5.5385-0.24035 9.2275-0.91962 14.626-2.6931 12.3-4.0415 21.83-9.4573 32.647-18.553 16.877-14.193 24.704-19.188 36.743-23.448 12.662-4.4806 22.39-4.5535 45.807-0.34299 10.936 1.9663 19.083 1.7796 26.398-0.60494 1.5855-0.51688 6.9309-2.9999 11.879-5.5178s11.695-5.9453 14.993-7.6163c11.04-5.5933 17.825-7.1393 31.19-7.1073 3.7698 9e-3 7.581 0.0936 8.4694 0.18788 0.8884 0.0943 3.5202 0.35417 5.8485 0.5775l4.2334 0.40605 1.4697 1.5186c1.2499 1.2914 1.5635 1.9314 2.096 4.2773 0.3445 1.5173 0.6328 3.9493 0.641 5.4045 0.019 3.4846-0.7549 4.9296-4.7257 8.8194-1.6835 1.6492-4.2138 4.4538-5.6229 6.2323-4.2947 5.4211-11.379 11.062-17.422 13.872-2.9223 1.3588-11.486 4.4578-15.065 5.4516-2.4507 0.68052-15.22 2.8382-20.088 3.3944-4.7686 0.54481-12.478 0.27183-21.01-0.744-6.1165-0.72816-7.1965-0.76372-12.347-0.40648-17.524 1.2154-33.804 7.4008-45.39 17.245-1.0992 0.93401-4.7504 4.0897-8.1139 7.0127-13.644 11.857-23.499 18.812-33.211 23.436-6.7419 3.2101-10.935 4.3209-20.115 5.3287-4.1576 0.45642-9.7326 0.0288-12.206-0.93634-0.6934-0.27052-4.4764-1.4544-8.4065-2.6309-3.9302-1.1765-9.2773-2.9234-11.882-3.882-21.819-8.0288-50.118-13.127-66.46-11.973-8.8108 0.62207-14.901 1.9818-21.555 4.8122-13.11 5.5772-21.347 11.467-33.572 24.007-5.3133 5.4504-8.8173 10.262-10.053 13.805-0.4656 1.3353-1.2091 2.6777-1.7342 3.1312-1.0819 0.93429-3.1618 1.0622-4.3008 0.26439z" fill="#e29bb9"/><path d="m1317.1-314.71c-5.343-1.9232-6.7483-5.1544-6.4089-14.735 0.3477-9.8125 2.5528-15.852 7.9279-21.716 1.5021-1.6384 3.8855-4.5302 5.2966-6.4263 10.451-14.043 22.424-24.742 34.29-30.638 8.4868-4.2172 15.737-6.026 28.222-7.0409 8.8621-0.72036 17.177-0.0163 29.81 2.5241 14.718 2.9598 22.97 5.2414 38.764 10.718 12.875 4.4641 19.054 5.8334 26.324 5.8334 10.482 0 18.582-2.9228 30.64-11.056 8.8854-5.9934 15.038-10.579 22.674-16.9 10.297-8.5232 15.151-11.851 23.986-16.442 8.1119-4.2154 15.203-6.4466 24.744-7.7862 9.2461-1.2981 15.912-1.5557 27.708-1.0707 11.593 0.47667 15.96 0.3381 23.478-0.74512 9.464-1.3634 17.24-3.8222 25.627-8.1035 8.0042-4.0856 12.996-8.1397 16.7-13.564 3.7591-5.5041 4.88-6.881 5.7866-7.1086 1.3716-0.34425 2.358 0.99448 1.9758 2.6817-0.1559 0.68851-0.289 10.539-0.2957 21.889-0.01 14.044-0.1688 22.779-0.5023 27.34-0.6697 9.1605-0.7352 42.405-0.096 48.507 0.2542 2.4253 1.1773 9.3829 2.0512 15.461 1.4783 10.281 1.55 11.111 1.029 11.906-1.0619 1.6207-2.7325 1.0218-4.4005-1.5776-0.6172-0.96188-1.8344-2.3325-2.7048-3.0457-0.8704-0.71324-2.5565-2.749-3.7469-4.524-4.3318-6.4592-8.5321-10.926-14.386-15.298-13.722-10.249-30.254-16.326-42.157-15.495-6.4484 0.45001-11.639 1.9239-23.46 6.6617-9.3503 3.7475-13.441 5.7452-21.228 10.367-8.6442 5.1306-19.715 10.348-27.602 13.008-6.0667 2.0463-18.922 5.7439-22.255 6.4013-2.3713 0.46771-4.7377 0.61676-9.3486 0.58875-6.5411-0.0397-10.005-0.58279-23.46-3.6777-5.118-1.1773-18.552-3.4298-28.222-4.7321-31.187-4.2-68.503-3.0498-81.779 2.5205-5.2981 2.223-12.468 8.1872-20.671 17.196-2.4082 2.6446-4.4928 4.8084-4.6325 4.8084-0.1396 0-0.7093 0.45357-1.2659 1.008s-1.5676 1.1972-2.2467 1.4285c-1.2886 0.43896-10.58 0.89602-25.576 1.2582-7.9514 0.19202-8.9938 0.15025-10.591-0.42456z" fill="#ca5e8e"/><path d="m1654.7-312c-7.179-0.16098-35.992-0.37074-64.029-0.46613-28.037-0.0954-60.025-0.3448-71.085-0.55428-21.05-0.39868-53.407-0.79294-118.71-1.4465-21.44-0.21456-39.335-0.45946-39.766-0.5442-1.1112-0.21851-1.6967-1.4222-1.0946-2.2502 0.2569-0.35323 1.2608-1.7995 2.2309-3.2139 4.9511-7.2183 19.862-15.286 34.108-18.454 9.4705-2.1062 18.742-2.704 35.304-2.2764 15.63 0.40349 24.828 1.5322 45.63 5.5996 20.359 3.9809 20.673 4.0178 34.184 4.0244 12.774 6e-3 16.23-0.29926 26.052-2.3023 6.0792-1.2398 16.138-4.1415 22.664-6.5382 6.7099-2.4641 14.688-6.6551 25.015-13.141 12.671-7.9581 18.96-10.897 27.045-12.641 4.197-0.9052 15.795-0.90224 20.05 5e-3 7.6033 1.6212 15.411 5.0702 23.244 10.268 5.7297 3.802 10.033 7.4356 15.753 13.302 11.154 11.44 16.116 21.133 13.609 26.591-0.8032 1.7491-1.528 2.4046-3.7591 3.4001-1.5487 0.69095-2.4236 0.7899-7.5719 0.85629-3.2014 0.0413-11.695-0.0566-18.874-0.21762z" fill="#a63567"/></g></g></g></svg>